<svg id="Layer_1" data-name="Layer 1" xmlns="http://www.w3.org/2000/svg" viewBox="0 0 3240 1080"><path d="M585.15,538.69A249.45,249.45,0,0,1,708.56,323.16a254.69,254.69,0,0,1,59.66-25.24,249,249,0,0,1,132.76,0,254.51,254.51,0,0,1,59.66,25.24,250.91,250.91,0,0,1,89.49,89.49,253.67,253.67,0,0,1,25.24,59.66,248.4,248.4,0,0,1,0,132.59,254.45,254.45,0,0,1-25.24,59.5A249.59,249.59,0,0,1,594,604.9,245.7,245.7,0,0,1,585.15,538.69Zm36.38,0a207.22,207.22,0,0,0,16.72,82.77A213.39,213.39,0,0,0,684,689.15a216.68,216.68,0,0,0,67.85,45.56,207.08,207.08,0,0,0,82.77,16.72,211.84,211.84,0,0,0,56.55-7.54,208.75,208.75,0,0,0,51-21.47,215.71,215.71,0,0,0,98.18-127.19,211.39,211.39,0,0,0-9.18-139.31A216,216,0,0,0,917.37,342.18,211.22,211.22,0,0,0,778.06,333a217.82,217.82,0,0,0-50.81,21.63A214,214,0,0,0,684,388.07a211.48,211.48,0,0,0-33.27,43.1,217.57,217.57,0,0,0-21.47,51A207.47,207.47,0,0,0,621.53,538.69Z"/><path d="M1132.57,302.68q39.33,96.69,78.18,192.25t78.51,192.25q3.6,8.85,7.37,18.19t7.71,18.2l14.09-34.42q20-48.84,39.17-97.52t39.83-97.52l12.78-30.48L1473.15,304q2.3-8.85,9.51-8.85a13,13,0,0,1,4.75.82,23.64,23.64,0,0,1,3.77,1.8l12.13,1a12.36,12.36,0,0,1,4.92,1.31,3.87,3.87,0,0,1,1.64,3.61c-.23,1.1-.45,2.24-.66,3.44a18.42,18.42,0,0,1-1,3.44L1445.94,466.9l89.82,221.92q3.6,8.53,7,17.38t7,17.37q3.93-8.85,7.7-17.87t7.7-18.52L1721.62,304q3.95-10.15,12.79-10.16h12.13c3.93,0,6.93.81,9,2.45a7.79,7.79,0,0,1,3.11,6.4,17.38,17.38,0,0,1-1.31,7.54l-198,479.56a29.36,29.36,0,0,1-3.11,4.43,6.71,6.71,0,0,1-5.41,2.13,7.44,7.44,0,0,1-5.08-2.3,34.86,34.86,0,0,1-4.92-5.9,65.52,65.52,0,0,1-8-16.71L1426.6,511.81l-113.09,278a12.64,12.64,0,0,1-2.94,4.59,7.58,7.58,0,0,1-5.58,2,7.73,7.73,0,0,1-5.24-2.46,33.93,33.93,0,0,1-5.08-6.23,57.92,57.92,0,0,1-4.43-8.19,77.18,77.18,0,0,1-3.28-8.69l-190.45-463.5c-.22-.66-.38-1.2-.49-1.64a5.36,5.36,0,0,1-.16-1.32,5.44,5.44,0,0,1,2.29-4.42,18.7,18.7,0,0,1,5.9-2.95,42.17,42.17,0,0,1,8-1.64,75.36,75.36,0,0,1,8.36-.49Q1128.63,294.81,1132.57,302.68Z"/><path d="M2155,294.81q12.47,0,12.46,12.13v11.47q0,5.58-3.11,8.85t-9.35,3.28H1862.89V575.08h236a13.34,13.34,0,0,1,9,2.95q3.45,2.94,3.45,9.5v11.8a12,12,0,0,1-3.28,8.85q-3.28,3.29-9.18,3.28h-236v134.4h297.32q12.45,0,12.45,12.12v11.81q0,11.79-12.12,11.8H1837c-3.72,0-6.39-1-8-3.11a13.15,13.15,0,0,1-2.46-8.37V306.61q0-7.55,3.77-9.67a16.69,16.69,0,0,1,8.36-2.13Z"/><path d="M2288.37,364.3V769.79q0,11.79-12.12,11.8h-11.48q-12.12,0-12.13-11.8v-475a20.31,20.31,0,0,1,1.48-7.38q1.47-3.76,7.05-3.77a11.33,11.33,0,0,1,8.19,3.61q87.84,107.19,174.88,213.23t174.88,213.23V306.61q0-11.81,12.13-11.8h11.8q11.8,0,11.8,11.8v477.6a20.5,20.5,0,0,1-2,6.72c-1.1,2.29-3.5,3.44-7.22,3.44a10.57,10.57,0,0,1-8.85-4.26Z"/></svg>