<svg id="Layer_1" data-name="Layer 1" xmlns="http://www.w3.org/2000/svg" viewBox="0 0 3240 1080"><defs><style>.cls-1,.cls-2{fill:#5ac499;}.cls-2{font-size:501.9px;font-family:Inter-ExtraBold, Inter;font-weight:800;letter-spacing:-0.01em;}.cls-3{letter-spacing:0em;}</style></defs><path class="cls-1" d="M56.25,843.52c31.22,85.7,99.66,138.94,178.58,138.94h1.95q43.56-.47,87.14-.84c30.76-.27,62.24-.58,93.72-.93-18.79-29.34-30.08-64.83-33.14-104.91-5.81-75.73,19.8-162.74,63.71-216.56,85.67-105,173.13-211.14,257.71-313.86q46-55.78,91.93-111.65c.4-.46.79-1,1.15-1.42H398.92l-24.14,29.34c-4.86,5.89-9,11-13.22,16.09Q229.11,438.61,96.83,599.31C41.47,666.65,26,760.2,56.25,843.52Z"/><path class="cls-1" d="M1223.76,236.48c-31.22-85.7-99.66-138.94-178.57-138.94h-2q-43.54.46-87.13.84c-30.77.27-62.25.58-93.73.93,18.79,29.34,30.08,64.83,33.15,104.91C901.32,280,875.71,367,831.8,420.78c-85.66,105-173.12,211.14-257.71,313.86q-46,55.79-91.93,111.65c-.39.46-.78,1-1.14,1.42H881.1l24.14-29.34c4.86-5.89,9-11,13.21-16.09q132.46-160.89,264.73-321.59C1238.54,413.35,1254.07,319.8,1223.76,236.48Z"/><text class="cls-2" transform="translate(1375.47 706.56)">Thrif<tspan class="cls-3" x="1191" y="0">t</tspan><tspan x="1391.26" y="0">ly</tspan></text></svg>